<?xml version="1.0" standalone="no"?>
<!DOCTYPE svg PUBLIC "-//W3C//DTD SVG 20010904//EN"
 "http://www.w3.org/TR/2001/REC-SVG-20010904/DTD/svg10.dtd">
<svg version="1.0" xmlns="http://www.w3.org/2000/svg"
 width="530.000000pt" height="638.000000pt" viewBox="0 0 530.000000 638.000000"
 preserveAspectRatio="xMidYMid meet">

<g transform="translate(0.000000,638.000000) scale(0.100000,-0.100000)"
fill="#000000" stroke="none">
<path d="M1142 5739 c-162 -27 -295 -166 -322 -336 -13 -80 -13 -4235 0 -4326
6 -37 22 -91 36 -119 32 -63 122 -161 141 -153 8 2 12 1 9 -3 -8 -14 75 -88
129 -115 28 -14 77 -30 110 -36 75 -14 2963 -15 3048 -1 165 27 302 155 335
312 12 58 14 4275 2 4352 -17 107 -57 173 -171 277 -96 87 -188 145 -214 135
-8 -3 -15 0 -18 7 -5 15 -2999 20 -3085 6z m3188 -53 c0 -2 -8 -10 -17 -17
-16 -13 -17 -12 -4 4 13 16 21 21 21 13z m-63 -60 c60 -28 114 -80 146 -140
l22 -41 3 -2193 c2 -1931 0 -2196 -13 -2228 -8 -20 -12 -41 -8 -47 4 -6 1 -7
-7 -2 -10 6 -12 4 -7 -8 3 -9 3 -16 -1 -15 -4 1 -25 -15 -47 -36 -22 -21 -62
-49 -90 -62 l-50 -24 -1540 0 -1540 0 -50 24 c-64 30 -121 87 -151 151 l-24
50 0 2185 0 2185 24 50 c26 53 85 125 102 125 6 0 20 9 32 20 12 12 22 18 22
16 0 -3 10 -1 23 4 13 5 669 9 1562 9 l1540 1 52 -24z m303 -244 c20 -53 20
-71 18 -2250 l-3 -2197 -24 -45 c-13 -25 -34 -59 -47 -76 -13 -17 -20 -35 -16
-38 3 -4 -1 -4 -10 -1 -9 4 -21 -1 -29 -12 -8 -10 -38 -29 -68 -43 l-54 -25
-1566 0 c-1547 0 -1566 0 -1603 20 l-37 20 1492 -3 c1588 -3 1595 -3 1692 45
109 53 194 170 215 294 13 76 10 4339 -3 4379 -16 49 21 -9 43 -68z m-3595
-4542 c3 -6 -1 -7 -9 -4 -18 7 -21 14 -7 14 6 0 13 -4 16 -10z"/>
<path d="M2696 4022 c-11 -19 -8 -172 4 -187 17 -20 54 -19 71 3 15 18 19 158
5 181 -8 13 -72 15 -80 3z"/>
<path d="M3203 3777 c-54 -55 -63 -80 -43 -118 18 -33 52 -23 107 34 67 68 74
108 21 126 -30 11 -33 9 -85 -42z"/>
<path d="M2162 3808 c-25 -25 -13 -63 37 -112 50 -49 74 -60 104 -44 34 18 21
66 -32 119 -49 50 -84 62 -109 37z"/>
<path d="M2637 3707 c-29 -7 -45 -16 -40 -21 5 -5 3 -6 -5 -2 -15 9 -102 -21
-102 -35 0 -5 -7 -9 -16 -9 -8 0 -40 -23 -70 -52 -188 -177 -189 -520 -3 -706
28 -28 55 -49 59 -47 4 3 10 -2 14 -10 7 -18 47 -20 64 -3 26 26 13 59 -46
117 -35 33 -70 80 -88 116 -27 57 -29 67 -29 185 0 117 2 128 27 175 53 98
119 151 230 186 259 80 502 -128 467 -401 -10 -84 -39 -145 -113 -235 -31 -37
-53 -72 -49 -78 3 -5 1 -7 -4 -4 -11 7 -21 -15 -43 -85 -11 -36 -13 -37 -93
-57 -185 -46 -280 -77 -291 -93 -15 -25 4 -72 32 -76 12 -2 78 12 145 31 67
19 152 43 190 52 69 18 114 53 102 82 -2 8 0 11 5 8 9 -5 15 29 13 73 -1 7 1
11 4 8 9 -9 132 147 162 207 82 159 60 372 -53 514 -49 63 -108 109 -126 98
-6 -3 -9 -1 -8 6 2 8 -23 22 -62 37 -78 28 -203 37 -273 19z"/>
<path d="M1934 3265 c-20 -20 -23 -29 -14 -45 16 -30 43 -40 113 -40 80 0 114
21 103 64 -8 34 -40 46 -117 46 -51 0 -64 -4 -85 -25z"/>
<path d="M3352 3274 c-27 -18 -29 -55 -4 -77 25 -22 149 -24 178 -2 10 8 15
15 9 15 -5 0 -4 4 4 9 19 13 4 50 -26 62 -39 15 -136 11 -161 -7z"/>
<path d="M2203 2774 c-47 -46 -54 -58 -51 -86 2 -25 9 -35 31 -42 25 -9 32 -5
83 45 77 75 83 119 18 132 -21 4 -36 -6 -81 -49z"/>
<path d="M3162 2808 c-23 -23 -13 -63 26 -101 21 -21 42 -34 47 -30 4 5 5 3 1
-4 -4 -7 2 -17 14 -23 17 -9 27 -8 46 5 39 25 31 59 -26 115 -50 51 -84 62
-108 38z"/>
<path d="M2837 2605 c-44 -12 -133 -35 -199 -51 -101 -24 -122 -32 -131 -51
-15 -33 5 -73 37 -73 35 0 86 12 82 19 -2 3 13 7 34 7 21 1 60 9 87 17 26 8
66 19 88 25 132 36 130 35 133 71 6 60 -22 68 -131 36z"/>
<path d="M2597 2402 c-10 -10 -17 -25 -17 -34 0 -19 38 -54 73 -67 52 -20 174
-11 160 12 -3 6 -1 7 6 3 6 -4 23 0 37 9 19 13 24 23 22 47 -4 43 -29 56 -70
39 -54 -22 -105 -25 -133 -7 -32 21 -58 20 -78 -2z"/>
</g>
</svg>
